<?xml version="1.0" encoding="UTF-8" standalone="no"?>
<svg
   xmlns:dc="http://purl.org/dc/elements/1.1/"
   xmlns:cc="http://creativecommons.org/ns#"
   xmlns:rdf="http://www.w3.org/1999/02/22-rdf-syntax-ns#"
   xmlns:svg="http://www.w3.org/2000/svg"
   xmlns="http://www.w3.org/2000/svg"
   xmlns:sodipodi="http://sodipodi.sourceforge.net/DTD/sodipodi-0.dtd"
   xmlns:inkscape="http://www.inkscape.org/namespaces/inkscape"
   width="98"
   height="96"
   version="1.1"
   id="svg4"
   sodipodi:docname="github-mark-white.svg"
   inkscape:version="1.0.1 (3bc2e813f5, 2020-09-07)">
  <metadata
     id="metadata10">
    <rdf:RDF>
      <cc:Work
         rdf:about="">
        <dc:format>image/svg+xml</dc:format>
        <dc:type
           rdf:resource="http://purl.org/dc/dcmitype/StillImage" />
      </cc:Work>
    </rdf:RDF>
  </metadata>
  <defs
     id="defs8" />
  <sodipodi:namedview
     pagecolor="#ffffff"
     bordercolor="#666666"
     borderopacity="1"
     objecttolerance="10"
     gridtolerance="10"
     guidetolerance="10"
     inkscape:pageopacity="0"
     inkscape:pageshadow="2"
     inkscape:window-width="1613"
     inkscape:window-height="1170"
     id="namedview6"
     showgrid="false"
     inkscape:zoom="6.9678751"
     inkscape:cx="50.222596"
     inkscape:cy="47.354188"
     inkscape:window-x="0"
     inkscape:window-y="0"
     inkscape:window-maximized="0"
     inkscape:current-layer="svg4" />
  <path
     fill-rule="evenodd"
     clip-rule="evenodd"
     d="m 48.366862,14.755574 c -17.806488,0 -32.201301,14.860392 -32.201301,33.244722 0,14.695577 9.223253,27.135076 22.01835,31.537804 1.599716,0.330981 2.185685,-0.715325 2.185685,-1.595466 0,-0.770714 -0.05273,-3.412486 -0.05273,-6.165036 -8.957625,1.981836 -10.822971,-3.962996 -10.822971,-3.962996 -1.439548,-3.852894 -3.572503,-4.843136 -3.572503,-4.843136 -2.931826,-2.03655 0.213558,-2.03655 0.213558,-2.03655 3.252165,0.220205 4.958661,3.412486 4.958661,3.412486 2.878435,5.063341 7.516756,3.63269 9.382763,2.751875 0.266291,-2.146652 1.119868,-3.632691 2.026177,-4.458118 -7.144347,-0.770713 -14.661104,-3.63269 -14.661104,-16.402496 0,-3.632688 1.278718,-6.604766 3.304895,-8.916233 -0.319679,-0.825428 -1.439548,-4.238589 0.320339,-8.806809 0,0 2.718924,-0.880816 8.849524,3.412487 a 30.959493,31.726936 0 0 1 8.050654,-1.101021 c 2.718926,0 5.490582,0.385695 8.049997,1.101021 6.131258,-4.293303 8.850182,-3.412487 8.850182,-3.412487 1.759887,4.56822 0.63936,7.981381 0.31968,8.806809 2.079566,2.311467 3.305554,5.283545 3.305554,8.916233 0,12.769806 -7.516757,15.576393 -14.714492,16.402496 1.173257,1.045632 2.185686,3.026792 2.185686,6.164361 0,4.458117 -0.05273,8.036095 -0.05273,9.136439 0,0.880816 0.586628,1.927122 2.185687,1.596816 C 71.29152,75.134696 80.514773,62.695873 80.514773,48.000296 80.567503,29.615966 66.11996,14.755574 48.366862,14.755574 Z"
     fill="#ffffff"
     id="path2"
     style="stroke-width:0.999992" />
</svg>
